<svg width="476" height="485" viewBox="0 0 476 485" fill="none" xmlns="http://www.w3.org/2000/svg">
<path d="M440.861 243.941L403.277 264.721C402.17 265.333 414.862 304.488 421.346 323.989L471.579 320.917L440.861 243.941Z" fill="#F5967F"/>
<path d="M474.818 318.063H471.269H469.938L440.957 245.018L423.804 253.594L446.132 238.807L473.191 307.86L474.818 318.063Z" fill="#EEE4E2"/>
<path d="M407.433 262.734L403.638 264.721L403.104 266.154L418.755 316.113C420.163 323.323 424.803 324.127 426.948 323.627L407.433 262.734Z" fill="#E08071"/>
<path d="M447.019 229.309L414.785 259.178L445.836 238.772L473.043 307.677L476.001 306.199L447.019 229.309Z" fill="#EF7F7D"/>
<path d="M252.891 134.388L325.065 129.227L338.184 236.805L247.922 248.348L252.891 134.388Z" fill="white"/>
<path d="M286.952 78.0582C273.924 72.3688 265.033 80.4287 262.215 85.1699C256.114 119.719 274.24 133.166 284.066 135.571C298.166 135.735 302.721 128.699 303.237 125.161C305.381 119.141 304.749 101.283 304.164 93.1062C301.938 89.808 291.762 81.6999 286.952 78.0582Z" fill="#F9DFCD"/>
<path d="M258.835 61.7904C245.289 80.3265 254.643 93.2119 261.013 97.3377C261.647 86.0101 265.238 81.1318 266.954 80.1086C262.439 73.6131 266.987 64.1008 269.826 59.9091C263.885 59.1169 260.023 60.8332 258.835 61.7904Z" fill="#8FA3E3"/>
<path d="M316.344 77.643C304.066 50.3142 279.345 54.968 268.519 60.711C260.439 71.801 263.304 79.1282 265.746 81.4057C268.915 78.8312 278.124 73.5833 286.144 79.2273C292.56 83.7425 300.304 91.1424 303.373 94.2779L303.868 107.843H305.452L309.809 104.675C315.829 93.3472 316.674 81.9337 316.344 77.643Z" fill="#7290F3"/>
<path d="M314.322 112.319C316.526 106.226 312.485 103.514 310.189 102.92H309.379L305.814 105.837H304.193L303.626 114.912C305.96 117.44 307.786 117.64 308.407 117.424C312.167 117.424 313.917 114.021 314.322 112.319Z" fill="#F9DFCD"/>
<path d="M263.878 122.732H267.075L270.516 134.031L258.509 150.374C259.043 158.913 252.505 209.41 249.17 233.591C247.003 240.929 250.073 245.209 251.879 246.432V253.256C206.487 249.359 217.529 207.096 228.724 186.451L257.575 126.689C258.742 124.269 261.192 122.732 263.878 122.732Z" fill="#EBA082"/>
<path d="M225.365 194.782C226.495 188.626 247.715 162.8 258.184 150.656C259.189 156.183 252.845 206.245 249.548 230.585C246.658 241.766 240.701 244.561 238.084 244.561C221.753 242.205 219.397 223.519 218.926 220.064C218.549 217.3 220.758 207.397 221.91 202.79L225.365 194.782Z" fill="#CF786E" fill-opacity="0.4"/>
<path d="M270.205 132.978L266.996 122.732C272.526 130.139 279.176 133.719 281.81 134.583H271.193L270.205 132.978Z" fill="#F5F5F5"/>
<path d="M272.672 176.194C287.253 160.223 286.501 143.038 284.302 136.441V135.573H287.427L288.295 137.309C296.072 150.78 291.535 164.563 288.295 169.771C279.546 196.434 298.421 198.124 308.952 195.636C304.508 206.607 294.602 210.854 290.204 211.606C263.68 211.467 267.464 187.94 272.672 176.194Z" fill="#EE747D"/>
<path d="M317.084 123.09C315.828 123.553 307.576 124.734 303.23 125.289L302.791 126.711L301.264 129.147L299.122 131.491C299.538 133.713 312.606 146.043 318.971 151.888C319.665 188.828 326.782 207.668 330.254 212.471C332.754 220.109 331.296 226.069 330.254 228.094L336.503 241.287C343.586 241.565 365.724 229.483 375.908 223.407C418.681 195.771 398.707 181.572 383.373 177.926C332.407 170.983 317.945 138.476 317.084 123.09Z" fill="#EBA082"/>
<path d="M374.539 177.235C350.78 172.993 328.012 158.497 319.597 151.78C319.597 189.115 326.668 208.348 330.204 213.298C333.089 219.407 331.406 226.167 330.204 228.783L337.416 241.511C365.587 235.062 390.59 212.944 399.57 202.691C408.395 184.363 386.56 178.084 374.539 177.235Z" fill="#CF786E" fill-opacity="0.4"/>
<path d="M371.075 153.81C364.717 152.179 339.488 149.598 327.668 148.511C321.146 143.212 314.625 121.814 317.682 122.629C320.127 123.281 323.863 127.384 325.426 129.354C332.925 130.17 362.924 127.656 376.985 126.298L437.512 100.212C438.979 101.353 439.482 110.198 439.55 114.478C432.376 114.152 390.911 140.563 371.075 153.81Z" fill="#F18578"/>
<path d="M447.039 110.15C446.691 110.15 442.687 102.288 440.729 98.3562L436.622 99.7959C437.758 100.739 438.789 110.341 439.162 115.025C443.654 117.462 446.285 112.791 447.039 110.15Z" fill="#ECEEED"/>
<path d="M445.917 109.566L439.998 98.3985C447.592 87.8563 460.137 89.6133 465.46 91.8096C480.112 104.407 474.766 107.407 470.262 107.333L469.592 105.546C469.927 97.8401 458.089 99.7386 455.521 99.8503C453.466 99.9396 453.622 101.153 453.957 101.749C454.218 101.935 455.632 102.486 459.206 103.201C462.78 103.915 462.184 107.221 461.44 108.784L445.917 109.566Z" fill="#F9DFCD"/>
<path d="M161.612 72.1492L148.716 85.9041C151.697 85.9041 186.638 120.101 203.736 137.199L210.041 139.778C213.021 139.319 235.545 146.846 246.434 150.667L255.891 130.608L230.673 123.444C227.693 123.444 183.39 89.2474 161.612 72.1492Z" fill="#F18578"/>
<path d="M147.514 65.0659C147.386 65.9169 141.397 73.3979 138.419 77.0321C139.313 77.0321 145.847 83.0241 149.003 86.0201L161.66 72.1393C156.998 69.4269 147.641 64.215 147.514 65.0659Z" fill="#FBFBFB"/>
<path d="M139.628 76.6455C137.708 75.9708 133.229 74.5126 130.676 74.0767C130.351 74.0211 130.034 73.9666 129.729 73.9136C129.085 74.1347 128.907 73.9809 128.938 73.7755C127.241 73.477 125.973 73.241 125.461 73.1426L121.101 69.7175L119.934 65.2026C119.778 61.9591 119.949 55.2698 121.88 54.4602C124.293 53.4483 131.999 46.9873 143.131 58.3524L148.424 65.2026L139.628 76.6455Z" fill="#F9DFCD"/>
<path d="M59.8106 108.203C60.3822 73.0471 41.4705 34.0088 31.9431 18.8841L46.9487 3.16402C57.2382 -0.837468 68.147 1.49673 72.3152 3.16402C82.319 13.1677 97.2054 77.3582 103.398 108.203L72.3152 112.133L59.8106 108.203Z" fill="#789EF9"/>
<path d="M46.0446 3.51782L31.0049 18.7854C53.2618 55.331 59.054 93.5156 59.168 108.04L71.8482 111.868C74.9106 86.9859 55.9218 29.267 46.0446 3.51782Z" fill="#5C71CB"/>
<path d="M108.084 33.4702C113.752 35.2413 144.94 46.8116 118.257 80.8322" stroke="#36296B" stroke-width="6"/>
<path d="M238.94 380.429C239.957 380.429 247.833 293.703 251.644 250.339C290.061 255.624 322.703 244.637 334.221 238.624L363.948 320.72L365.981 408.378H349.212L340.827 335.965L322.533 301.918C318.637 292.856 310.388 274.782 308.559 274.985C306.729 275.189 292.551 282.184 285.691 285.657C284.878 287.283 273.495 332.069 267.906 354.259C275.528 347.568 290.824 334.542 291.027 335.965C291.23 337.388 295.685 343.841 297.887 346.89L259.521 392.117H253.931C248.511 388.221 237.924 380.429 238.94 380.429Z" fill="#728BF6"/>
<path d="M297.288 347.284C296.471 346.331 292.637 339.967 290.822 336.905L294.055 334.012L301.031 342.349C300.124 344.391 298.104 348.236 297.288 347.284Z" fill="#F9DFCD"/>
<path d="M298.301 330.251C298.345 330.469 295.462 332.802 294.015 333.941L300.96 342.46C301.141 342.406 301.72 342.134 302.588 341.483C303.456 340.832 303.384 337.341 303.239 335.677C303.185 333.67 298.247 329.98 298.301 330.251Z" fill="white"/>
<path d="M296.75 327.723V329.672C304.102 333.014 302.691 339.047 301.067 341.646L299.814 342.482L298.978 345.267L295.497 349.861L301.067 363.645C304.52 373.336 309.467 372.51 311.509 370.885L310.674 329.672L308.446 327.723H296.75Z" fill="#463F85"/>
<path d="M352.767 418.556L351.169 408.169H364.751V418.556C360.277 425.428 354.897 421.419 352.767 418.556Z" fill="#F9DFCD"/>
<path d="M352.167 426.745V417.356C358.24 425.826 363.886 420.885 365.95 417.356C366.949 431.538 363.353 432.337 359.158 433.136C355.803 433.776 353.099 429.142 352.167 426.745Z" fill="#E6E6E6"/>
<path d="M340.382 440.927L352.167 420.153C353.166 441.326 364.352 428.742 364.552 429.94C364.751 431.139 367.947 471.288 367.947 472.287C370.824 486.509 362.088 485.67 357.361 483.473C345.855 460.622 341.248 445.587 340.382 440.927Z" fill="#463F85"/>
<path d="M105.993 10.5561C98.1121 5.37156 78.8601 3.21134 70.2192 2.7793C80.3809 10.8672 96.4012 75.9677 103.141 107.507C108.533 108.129 122.497 101.026 128.805 97.3972C116.569 79.355 108.498 31.9855 105.993 10.5561Z" fill="#CBA8DE"/>
<path d="M251.715 250.662C300.451 255.748 327.954 244.321 335.052 238.012L329.929 227.321L251.715 246.448V250.662Z" fill="#281D60"/>
<path d="M120.472 68.0432C120.006 67.655 122.025 58.7586 123.092 54.3589C124.49 53.3495 130.015 54.7794 132.603 55.6206L134.253 62.2201V69.2078L126.586 74.3516L119.89 71.1489C120.278 70.2754 120.938 68.4314 120.472 68.0432Z" fill="#F9DFCD"/>
<path fill-rule="evenodd" clip-rule="evenodd" d="M372.656 56.3292L380.724 23.3462C381.162 21.556 382.766 20.2966 384.609 20.2966H425.204C427.068 20.2966 428.701 21.5829 428.902 23.4365C429.522 29.1441 428.996 37.9971 423.805 44.2179C423.125 45.0324 422.091 45.4417 421.03 45.4417H386.602C385.633 45.4417 384.697 45.7933 383.968 46.4314L372.656 56.3292ZM391.495 35.5236C393.252 35.5236 394.677 34.0989 394.677 32.3414C394.677 30.5839 393.252 29.1592 391.495 29.1592C389.737 29.1592 388.313 30.5839 388.313 32.3414C388.313 34.0989 389.737 35.5236 391.495 35.5236ZM405.891 32.3414C405.891 34.0989 404.466 35.5236 402.708 35.5236C400.951 35.5236 399.526 34.0989 399.526 32.3414C399.526 30.5839 400.951 29.1592 402.708 29.1592C404.466 29.1592 405.891 30.5839 405.891 32.3414ZM413.922 35.5236C415.679 35.5236 417.104 34.0989 417.104 32.3414C417.104 30.5839 415.679 29.1592 413.922 29.1592C412.165 29.1592 410.74 30.5839 410.74 32.3414C410.74 34.0989 412.165 35.5236 413.922 35.5236Z" fill="#779FF5"/>
<path fill-rule="evenodd" clip-rule="evenodd" d="M152.04 307.481L144.045 274.506C143.61 272.712 142.004 271.449 140.158 271.449H99.9902C98.1229 271.449 96.4888 272.739 96.2894 274.596C95.6769 280.299 96.1982 289.139 101.332 295.357C102.011 296.18 103.051 296.594 104.118 296.594H138.194C139.169 296.594 140.11 296.95 140.841 297.595L152.04 307.481ZM133.367 286.676C131.625 286.676 130.213 285.251 130.213 283.494C130.213 281.736 131.625 280.311 133.367 280.311C135.109 280.311 136.521 281.736 136.521 283.494C136.521 285.251 135.109 286.676 133.367 286.676ZM119.098 283.494C119.098 285.251 120.511 286.676 122.253 286.676C123.995 286.676 125.407 285.251 125.407 283.494C125.407 281.736 123.995 280.311 122.253 280.311C120.511 280.311 119.098 281.736 119.098 283.494ZM111.138 286.676C109.396 286.676 107.984 285.251 107.984 283.494C107.984 281.736 109.396 280.311 111.138 280.311C112.88 280.311 114.292 281.736 114.292 283.494C114.292 285.251 112.88 286.676 111.138 286.676Z" fill="#779FF5"/>
<path fill-rule="evenodd" clip-rule="evenodd" d="M17.8946 390.73L1.90055 375.763C-0.165845 373.83 -0.600099 370.715 0.858576 368.29L30.9534 318.255C33.0156 314.826 37.7923 314.338 40.5052 317.279L58.591 336.885C60.5126 338.968 60.7147 342.111 59.0755 344.423L26.8888 389.82C24.7859 392.786 20.5493 393.214 17.8946 390.73ZM38.0102 328.553C37.4733 327.969 37.5115 327.06 38.0955 326.523C38.6795 325.986 39.5881 326.024 40.125 326.608L44.8041 331.698C45.341 332.282 45.3028 333.191 44.7188 333.728C44.1348 334.264 43.2261 334.226 42.6892 333.642L38.0102 328.553ZM9.94333 380.271C11.4116 380.271 12.6018 379.081 12.6018 377.613C12.6018 376.145 11.4116 374.954 9.94333 374.954C8.47508 374.954 7.28483 376.145 7.28483 377.613C7.28483 379.081 8.47508 380.271 9.94333 380.271Z" fill="#4D4388"/>
<path d="M30.3477 324.913C29.0862 324.913 13.3014 352.398 5.56665 366.14C11.2738 372.898 22.7332 386.055 22.9134 384.613C23.0936 383.171 41.4616 357.429 50.6231 344.738C44.3903 338.13 31.6093 324.913 30.3477 324.913Z" fill="white"/>
<path d="M23.1689 390.561V392.493C23.8011 392.493 26.2417 390.795 27.3831 389.947L48.1903 359.658H46.5222L43.7128 361.238L40.7278 364.223L23.1689 390.561Z" fill="#2C2456" fill-opacity="0.3"/>
</svg>
