<?xml version="1.0" encoding="UTF-8" standalone="no"?>
<svg
   width="767"
   height="362"
   viewBox="0 0 767 362"
   fill="none"
   version="1.1"
   id="svg10"
   sodipodi:docname="group14.svg"
   inkscape:version="1.2.1 (9c6d41e410, 2022-07-14)"
   inkscape:export-filename="group14.svg"
   inkscape:export-xdpi="96"
   inkscape:export-ydpi="96"
   xmlns:inkscape="http://www.inkscape.org/namespaces/inkscape"
   xmlns:sodipodi="http://sodipodi.sourceforge.net/DTD/sodipodi-0.dtd"
   xmlns="http://www.w3.org/2000/svg"
   xmlns:svg="http://www.w3.org/2000/svg">
  <defs
     id="defs14" />
  <sodipodi:namedview
     id="namedview12"
     pagecolor="#505050"
     bordercolor="#eeeeee"
     borderopacity="1"
     inkscape:showpageshadow="0"
     inkscape:pageopacity="0"
     inkscape:pagecheckerboard="0"
     inkscape:deskcolor="#505050"
     showgrid="false"
     inkscape:zoom="0.6519337"
     inkscape:cx="384.24153"
     inkscape:cy="58.288136"
     inkscape:window-width="2560"
     inkscape:window-height="1417"
     inkscape:window-x="1912"
     inkscape:window-y="-8"
     inkscape:window-maximized="1"
     inkscape:current-layer="svg10" />
  <path
     d="M 456.50222,336.28448 C 387.83623,77.776284 88.338962,13.395597 78.927482,12.648283 L -3.0839128,6.1355935 -9.1640678,396.73725 286.37181,405.32053 c 128.48377,-25.52177 166.95603,-56.6586 170.13041,-69.03605 z"
     fill="#d5ace4"
     id="path2"
     style="stroke-width:1.16262" />
  <path
     d="M 844.27681,398.772 C 514.45655,62.837556 144.76959,27.03074 1.1540762,51.118975 V 106.37251 C 59.572613,112.6768 222.5263,214.80585 358.5359,398.772 Z"
     fill="#eaebff"
     fill-opacity="0.3"
     id="path4"
     style="stroke-width:1.16262" />
  <path
     d="M 1.1540762,298.1572 V 106.41588 C 124.96493,125.67519 302.43357,321.26611 358.4604,399.98552 H 277.06261 C 210.25205,328.92182 65.286028,302.4902 1.1540762,298.1572 Z"
     fill="#cea9df"
     fill-opacity="0.3"
     id="path6"
     style="stroke-width:1.16262" />
  <path
     d="m 1.1540762,364.50507 v -69.7462 C 175.03653,314.26975 256.31765,373.01745 275.22319,399.95362 H 35.471626 c -18.953011,0 -34.3175498,-15.8715 -34.3175498,-35.44855 z"
     fill="#e6b5da"
     fill-opacity="0.3"
     id="path8"
     style="stroke-width:1.16262" />
</svg>
