<svg width="1321" height="791" viewBox="0 0 1321 791" fill="none" xmlns="http://www.w3.org/2000/svg">
<path d="M532 763.429C459.095 501.57 99.3522 387.507 90 387L21.7952 364.781L22.9682 763.429L312 763.429L532 763.429Z" fill="#D5ACE4"/>
<path d="M760.117 757.744C471.791 473.444 148.615 443.141 23.0684 463.527V510.287C74.1372 515.623 216.589 602.054 335.488 757.744H760.117Z" fill="#EAEBFF" fill-opacity="0.3"/>
<path d="M23.0684 672.594V510.324C131.302 526.623 286.443 692.152 335.421 758.771H264.264C205.86 698.63 79.1317 676.261 23.0684 672.594Z" fill="#CEA9DF" fill-opacity="0.3"/>
<path d="M23.0684 728.744V669.719C175.074 686.23 246.129 735.949 262.656 758.744H53.0684C36.4998 758.744 23.0684 745.313 23.0684 728.744Z" fill="#E6B5DA" fill-opacity="0.3"/>
<path d="M328.935 83.097C259.313 229.729 96.6354 260.732 23.9993 257.904L21.7954 73.2163L334.388 71.3782L328.935 83.097Z" fill="#C4C6FE" fill-opacity="0.3"/>
<path d="M813.838 516.291C827.079 486.693 1164.01 159.948 1330.83 0.274902C1362.31 186.56 1424.1 559.13 1419.43 559.13C1413.58 559.13 1233.47 644.808 1227.62 644.808C1098.33 682.973 955.661 628.905 900.49 597.101C801.571 569.839 801.506 531.868 813.838 516.291Z" fill="#DAAFDB" fill-opacity="0.3"/>
<path d="M825.12 562.98C801.571 543.009 807.361 524.465 813.801 517.245C839.189 535.584 921.115 543.457 958.905 545.101C1018.18 551.735 1073.01 533.263 1114.73 510.19C1163.03 483.478 1204.22 445.316 1249.93 414.376L1341.09 352.672V594.099C1331.74 597.366 1306.26 607.462 1279.18 621.716C1245.32 639.534 1221.71 647.997 1182.52 655.124C1151.16 660.826 1099.07 657.5 1076.95 655.124C1003.18 645.859 927.801 612.352 899.331 596.756C878.551 593.969 845.479 576.377 831.541 567.93C829.186 566.281 827.052 564.629 825.12 562.98Z" fill="#DEB1DC" fill-opacity="0.6"/>
</svg>
