<svg width="334" height="288" viewBox="0 0 334 288" fill="none" xmlns="http://www.w3.org/2000/svg">
<path fill-rule="evenodd" clip-rule="evenodd" d="M276.656 36.3292L284.724 3.34623C285.162 1.55596 286.766 0.296631 288.609 0.296631H329.204C331.068 0.296631 332.701 1.58295 332.902 3.43647C333.522 9.14409 332.996 17.9971 327.805 24.2179C327.125 25.0324 326.091 25.4417 325.03 25.4417H290.602C289.633 25.4417 288.697 25.7933 287.968 26.4314L276.656 36.3292ZM295.495 15.5236C297.252 15.5236 298.677 14.0989 298.677 12.3414C298.677 10.5839 297.252 9.15921 295.495 9.15921C293.737 9.15921 292.313 10.5839 292.313 12.3414C292.313 14.0989 293.737 15.5236 295.495 15.5236ZM309.891 12.3414C309.891 14.0989 308.466 15.5236 306.708 15.5236C304.951 15.5236 303.526 14.0989 303.526 12.3414C303.526 10.5839 304.951 9.15921 306.708 9.15921C308.466 9.15921 309.891 10.5839 309.891 12.3414ZM317.922 15.5236C319.679 15.5236 321.104 14.0989 321.104 12.3414C321.104 10.5839 319.679 9.15921 317.922 9.15921C316.165 9.15921 314.74 10.5839 314.74 12.3414C314.74 14.0989 316.165 15.5236 317.922 15.5236Z" fill="#779FF5"/>
<path fill-rule="evenodd" clip-rule="evenodd" d="M56.0398 287.481L48.0452 254.506C47.6102 252.712 46.0039 251.449 44.1578 251.449H3.99022C2.12292 251.449 0.48877 252.739 0.289402 254.596C-0.323082 260.299 0.198196 269.139 5.33174 275.357C6.01109 276.18 7.05085 276.594 8.11786 276.594H42.1938C43.1687 276.594 44.1101 276.95 44.841 277.595L56.0398 287.481ZM37.3671 266.676C35.6252 266.676 34.213 265.251 34.213 263.494C34.213 261.736 35.6252 260.311 37.3671 260.311C39.1091 260.311 40.5213 261.736 40.5213 263.494C40.5213 265.251 39.1091 266.676 37.3671 266.676ZM23.0985 263.494C23.0985 265.251 24.5106 266.676 26.2526 266.676C27.9946 266.676 29.4067 265.251 29.4067 263.494C29.4067 261.736 27.9946 260.311 26.2526 260.311C24.5106 260.311 23.0985 261.736 23.0985 263.494ZM15.1381 266.676C13.3961 266.676 11.984 265.251 11.984 263.494C11.984 261.736 13.3961 260.311 15.1381 260.311C16.8801 260.311 18.2922 261.736 18.2922 263.494C18.2922 265.251 16.8801 266.676 15.1381 266.676Z" fill="#779FF5"/>
</svg>
