<svg width="514" height="659" viewBox="0 0 514 659" fill="none" xmlns="http://www.w3.org/2000/svg">
<path d="M5.95008 516.913C19.1912 487.315 356.127 160.57 522.939 0.896973C554.42 187.182 616.212 559.752 611.538 559.752C605.697 559.752 425.578 645.43 419.736 645.43C290.44 683.595 147.773 629.527 92.6018 597.723C-6.31741 570.461 -6.38235 532.49 5.95008 516.913Z" fill="#DAAFDB" fill-opacity="0.3"/>
<path d="M17.2325 563.602C-6.31706 543.631 -0.526542 525.087 5.9131 517.867C31.3011 536.206 113.227 544.079 151.017 545.723C210.294 552.357 265.121 533.885 306.843 510.812C355.146 484.1 396.333 445.938 442.043 414.998L533.203 353.294V594.721C523.849 597.988 498.37 608.084 471.287 622.338C437.434 640.156 413.826 648.619 374.627 655.746C343.268 661.448 291.182 658.122 269.058 655.746C195.294 646.481 119.913 612.974 91.4435 597.379C70.6628 594.591 37.591 576.999 23.6527 568.552C21.2981 566.903 19.1636 565.251 17.2325 563.602Z" fill="#DEB1DC" fill-opacity="0.6"/>
</svg>
